<?xml version="1.0" encoding="utf-8"?>
<svg version="1.1" id="Layer_1" xmlns="http://www.w3.org/2000/svg" xmlns:xlink="http://www.w3.org/1999/xlink" x="0px" y="0px"
	 viewBox="0 0 1693.5 612" style="enable-background:new 0 0 1693.5 612;" xml:space="preserve">
<style type="text/css">
	.st0{fill:#18A338;}
	.st1{fill:#00E574;}
	.st2{fill:#558564;}
	.st3{fill:#4FED00;}
	.st4{fill:#C3C3C4;}
	.st5{fill:#FFFFFF;}
	.st6{fill:#909091;}
	.st7{fill:#3C3C3B;}
	.st8{fill:#6F6F6E;}
	.st9{fill:#071E22;}
</style>
<g>
	<path class="st0" d="M300.5,594.3c-76.7,0-148.9-29.9-203.1-84.1C43.2,455.9,13.3,383.8,13.3,307c0-76.7,29.9-148.9,84.1-203.1
		s126.4-84.1,203.1-84.1s148.9,29.9,203.1,84.1l-45.3,45.3c-42.2-42.2-98.2-65.4-157.8-65.4S184.9,107,142.7,149.2
		c-42.2,42.2-65.4,98.2-65.4,157.8c0,59.6,23.2,115.7,65.4,157.8c42.2,42.2,98.2,65.4,157.8,65.4s115.7-23.2,157.8-65.4l45.3,45.3
		C449.4,564.4,377.3,594.3,300.5,594.3z"/>
	<path class="st1" d="M458.5,465c-42.2,42.2-98.3,65.4-158,65.4c-59.7,0-115.8-23.2-158-65.4c-42.2-42.2-65.4-98.3-65.4-158
		s23.2-115.8,65.4-158c42.2-42.2,98.3-65.4,158-65.4c59.7,0,115.8,23.2,158,65.4l-0.2,0.2c0,0,0,0,0,0l45.3-45.3
		c-54.3-54.3-126.4-84.1-203.1-84.1c-76.7,0-148.9,29.9-203.1,84.1C43.2,158.2,13.3,230.3,13.3,307c0,76.7,29.9,148.9,84.1,203.1
		c54.3,54.3,126.4,84.1,203.1,84.1s148.9-29.9,203.1-84.1l-13.9-13.9L458.5,465z"/>
	<path class="st2" d="M368.1,374.6c-19.9,19.9-47.2,30-75.7,27.7c-20.2-1.6-39.5-9.8-54.7-23.2c-22.8-19.9-34.6-48.5-32.6-78.7
		c1.4-20.2,9.2-39.6,22.3-55c18.5-21.8,44.9-33.9,73.1-33.9c25.5,0,49.5,9.9,67.6,28l45.1-45.1c-30.1-30.1-70.1-46.7-112.7-46.7
		c-42.6,0-82.6,16.6-112.7,46.7c-30.1,30.1-46.7,70.1-46.7,112.7c0,42.6,16.6,82.6,46.7,112.7c30.1,30.1,70.1,46.7,112.7,46.7
		c42.6,0,82.6-16.6,112.7-46.7L368.1,374.6L368.1,374.6L368.1,374.6z"/>
	<path class="st3" d="M503.6,510.1l-19.8-115.7l-115.7-19.8l45.1,45.1c-30.1,30.1-70.1,46.7-112.7,46.7
		c-42.6,0-82.6-16.6-112.7-46.7c-30.1-30.1-46.7-70.1-46.7-112.7c0-42.6,16.6-82.6,46.7-112.7c30.1-30.1,70.1-46.7,112.7-46.7
		c42.6,0,82.6,16.6,112.7,46.7l45.3-45.3c-42.2-42.2-98.3-65.4-158-65.4c-59.7,0-115.8,23.2-158,65.4c-42.2,42.2-65.4,98.3-65.4,158
		s23.2,115.8,65.4,158c42.2,42.2,98.3,65.4,158,65.4c59.7,0,115.8-23.2,158-65.4L503.6,510.1z"/>
</g>
<g>
	<path class="st9" d="M669.2,422.5c-20.1,0-38.2-4.6-54.3-13.8c-16.1-9.2-28.9-21.8-38.3-37.7c-9.5-16-14.2-33.9-14.2-53.8
		c0-19.9,4.7-37.7,14-53.6c9.3-15.8,22.1-28.3,38.3-37.4c16.2-9.1,34.4-13.6,54.5-13.6c15,0,28.8,2.6,41.6,7.7
		c12.8,5.2,23.7,12.3,32.8,21.5c9.1,9.2,15.6,20.1,19.5,32.6l-47.9,20.6c-3.4-10.1-9.3-18-17.5-23.9c-8.2-5.9-17.7-8.8-28.5-8.8
		c-9.6,0-18.1,2.3-25.6,7c-7.5,4.7-13.4,11.2-17.7,19.5c-4.3,8.4-6.4,17.9-6.4,28.7s2.1,20.4,6.4,28.7c4.3,8.4,10.2,14.9,17.7,19.5
		s16,7,25.6,7c11,0,20.6-2.9,28.7-8.8c8.1-5.9,13.9-13.9,17.3-23.9l47.9,21c-3.7,11.8-10.1,22.3-19.1,31.7
		c-9.1,9.3-20,16.6-32.8,21.9C698.4,419.9,684.4,422.5,669.2,422.5z"/>
	<path class="st9" d="M857.8,422.5c-14.5,0-27-2.3-37.6-7c-10.6-4.7-18.7-11.4-24.3-20.1c-5.7-8.7-8.5-19.1-8.5-31.1
		c0-11.3,2.6-21.3,7.7-30c5.2-8.7,13.1-16,23.8-21.9c10.7-5.9,24-10.1,40-12.5l61.5-9.9v40.5l-51.6,9.2c-7.9,1.5-13.9,4-18,7.6
		c-4.2,3.6-6.3,8.7-6.3,15.3c0,6.1,2.3,10.9,7,14.4c4.7,3.4,10.4,5.2,17.3,5.2c9.1,0,17.1-2,23.9-5.9c6.9-3.9,12.2-9.3,16-16
		c3.8-6.7,5.7-14.2,5.7-22.3v-52.3c0-7.6-3-14-9-19.1c-6-5.2-14.2-7.7-24.5-7.7c-9.8,0-18.5,2.7-26,8.1c-7.5,5.4-13,12.5-16.4,21.4
		l-44.2-21c3.9-11.3,10.2-21,18.8-29.1c8.6-8.1,18.9-14.4,30.9-18.8c12-4.4,25.2-6.6,39.4-6.6c16.9,0,31.9,3.1,44.9,9.2
		c13,6.1,23.1,14.7,30.4,25.6c7.2,10.9,10.9,23.6,10.9,38.1v132.6h-51.6v-32.4l12.5-2.2c-5.9,8.8-12.4,16.1-19.5,21.9
		c-7.1,5.8-15.1,10.1-23.9,12.9C878.4,421.1,868.6,422.5,857.8,422.5z"/>
	<path class="st9" d="M1010.2,418.1V217h51.6v48.2l-3.7-7c4.4-16.9,11.7-28.4,21.9-34.4c10.2-6,22.3-9,36.3-9h11.8v47.9h-17.3
		c-13.5,0-24.4,4.1-32.8,12.3c-8.4,8.2-12.5,19.8-12.5,34.8v108.3H1010.2z"/>
	<path class="st9" d="M1152.4,418.1V217h51.6v49l-5.5-8.1c2.9-15.5,10.1-26.9,21.4-34.2s24.8-11.1,40.5-11.1
		c16.7,0,31.4,4.2,44,12.7c12.6,8.5,20.6,19.8,23.8,34.1l-15.8,1.5c6.6-16.4,16.1-28.6,28.4-36.5c12.3-7.9,26.6-11.8,43.1-11.8
		c14.5,0,27.3,3.2,38.5,9.6c11.2,6.4,19.9,15.3,26.3,26.7c6.4,11.4,9.6,24.7,9.6,40v129.3h-55.2V300.6c0-7.9-1.4-14.6-4.2-20.3
		c-2.8-5.6-6.8-10.1-12-13.3c-5.2-3.2-11.4-4.8-18.8-4.8c-7.1,0-13.3,1.6-18.6,4.8s-9.3,7.6-12.2,13.3c-2.8,5.6-4.2,12.4-4.2,20.3
		v117.5h-55.2V300.6c0-7.9-1.4-14.6-4.2-20.3c-2.8-5.6-6.8-10.1-12-13.3c-5.2-3.2-11.4-4.8-18.8-4.8c-7.1,0-13.3,1.6-18.6,4.8
		c-5.3,3.2-9.3,7.6-12.2,13.3c-2.8,5.6-4.2,12.4-4.2,20.3v117.5H1152.4z"/>
	<path class="st9" d="M1556.8,422.5c-14.5,0-27-2.3-37.6-7c-10.6-4.7-18.7-11.4-24.3-20.1c-5.7-8.7-8.5-19.1-8.5-31.1
		c0-11.3,2.6-21.3,7.7-30c5.2-8.7,13.1-16,23.8-21.9s24-10.1,40-12.5l61.5-9.9v40.5l-51.6,9.2c-7.9,1.5-13.9,4-18,7.6
		c-4.2,3.6-6.3,8.7-6.3,15.3c0,6.1,2.3,10.9,7,14.4c4.7,3.4,10.4,5.2,17.3,5.2c9.1,0,17.1-2,23.9-5.9c6.9-3.9,12.2-9.3,16-16
		c3.8-6.7,5.7-14.2,5.7-22.3v-52.3c0-7.6-3-14-9-19.1c-6-5.2-14.2-7.7-24.5-7.7c-9.8,0-18.5,2.7-26,8.1c-7.5,5.4-13,12.5-16.4,21.4
		l-44.2-21c3.9-11.3,10.2-21,18.8-29.1c8.6-8.1,18.9-14.4,30.9-18.8c12-4.4,25.2-6.6,39.4-6.6c16.9,0,31.9,3.1,44.9,9.2
		c13,6.1,23.1,14.7,30.4,25.6c7.2,10.9,10.9,23.6,10.9,38.1v132.6h-51.6v-32.4l12.5-2.2c-5.9,8.8-12.4,16.1-19.5,21.9
		c-7.1,5.8-15.1,10.1-23.9,12.9C1577.4,421.1,1567.6,422.5,1556.8,422.5z"/>
</g>
</svg>
